<?xml version="1.0" standalone="no"?>
<!DOCTYPE svg PUBLIC "-//W3C//DTD SVG 20010904//EN"
 "http://www.w3.org/TR/2001/REC-SVG-20010904/DTD/svg10.dtd">
<svg version="1.0" xmlns="http://www.w3.org/2000/svg"
 width="1306.000000pt" height="1306.000000pt" viewBox="0 0 1306.000000 1306.000000"
 preserveAspectRatio="xMidYMid meet">
<metadata>
Created by potrace 1.14, written by Peter Selinger 2001-2017
</metadata>
<g transform="translate(0.000000,1306.000000) scale(0.100000,-0.100000)"
fill="#000000" stroke="none">
<path d="M3024 13028 c-27 -18 -65 -58 -86 -88 -21 -30 -41 -59 -46 -65 -19
-24 -71 -125 -92 -180 -12 -33 -26 -69 -31 -80 -7 -18 -39 -124 -45 -150 -1
-5 -14 -55 -28 -110 -28 -113 -55 -233 -62 -284 -2 -19 -9 -52 -14 -75 -5 -22
-16 -86 -25 -141 -9 -55 -18 -112 -20 -126 -3 -14 -7 -41 -9 -60 -3 -19 -7
-50 -10 -69 -11 -78 -27 -187 -31 -220 -2 -19 -9 -75 -15 -125 -6 -49 -13
-101 -15 -115 -4 -27 -12 -105 -20 -185 -3 -27 -8 -70 -11 -95 -3 -25 -7 -67
-9 -95 -2 -27 -6 -70 -9 -95 -9 -86 -17 -175 -21 -235 -3 -33 -7 -91 -10 -130
-3 -38 -8 -97 -11 -130 -2 -33 -6 -88 -8 -122 -7 -106 -16 -235 -22 -308 -2
-38 -7 -108 -10 -155 -11 -193 -13 -229 -18 -315 -11 -161 -17 -288 -21 -390
-2 -55 -4 -100 -5 -100 -1 0 -3 -45 -5 -100 -2 -55 -7 -172 -11 -260 -11 -206
-11 -2493 -1 -2690 4 -82 10 -195 12 -250 11 -236 16 -325 30 -525 2 -30 7
-98 10 -150 12 -170 13 -183 20 -270 3 -47 8 -103 10 -125 5 -42 13 -142 21
-235 10 -123 13 -157 18 -205 6 -49 12 -104 21 -198 7 -69 14 -136 20 -184 7
-63 14 -122 20 -178 3 -27 10 -84 16 -125 6 -41 11 -82 11 -90 0 -8 4 -40 9
-70 5 -30 11 -75 13 -100 3 -25 7 -61 10 -80 3 -19 8 -55 11 -80 2 -25 6 -56
9 -70 5 -23 11 -72 22 -155 2 -16 6 -46 9 -65 2 -19 7 -53 10 -75 3 -22 10
-62 15 -90 14 -71 23 -136 24 -167 1 -16 5 -28 9 -28 5 0 6 -3 3 -8 -2 -4 -1
-28 4 -52 5 -25 11 -65 15 -90 3 -25 8 -52 10 -60 2 -8 6 -28 9 -45 2 -16 8
-50 12 -75 4 -25 8 -54 10 -65 1 -11 3 -20 4 -20 1 0 4 -13 6 -30 3 -16 18
-102 34 -190 16 -88 32 -173 35 -190 5 -33 8 -47 31 -158 8 -42 17 -90 20
-105 3 -15 7 -34 9 -42 2 -8 7 -28 10 -45 2 -16 7 -41 10 -55 3 -14 8 -36 11
-50 2 -14 13 -65 24 -115 11 -49 22 -101 25 -115 2 -14 10 -47 15 -75 6 -27
14 -61 16 -75 3 -14 16 -70 29 -125 12 -55 31 -136 40 -180 20 -91 48 -148 82
-171 38 -24 105 -29 144 -9 85 45 87 52 93 411 3 170 8 361 11 424 7 153 13
265 15 265 0 0 3 29 5 65 5 86 14 197 20 240 3 19 7 66 10 103 4 37 8 76 10
86 2 10 6 42 10 72 3 30 8 68 12 84 3 17 7 41 9 55 4 35 13 90 19 120 3 14 8
39 11 55 3 17 10 50 16 75 5 25 12 56 14 70 2 14 13 57 24 95 11 39 22 77 24
85 28 108 111 278 187 382 144 194 301 255 529 204 25 -5 122 -48 155 -69 87
-53 201 -131 203 -138 2 -5 8 -9 14 -9 5 0 15 -6 22 -13 7 -6 27 -23 45 -37
18 -14 38 -30 44 -36 7 -5 37 -32 67 -58 115 -101 379 -368 470 -476 11 -14
33 -39 48 -56 15 -17 47 -55 72 -84 25 -29 50 -58 55 -64 6 -6 23 -29 40 -51
33 -45 37 -50 66 -85 12 -14 33 -41 48 -60 14 -19 28 -37 31 -40 25 -25 90
-111 90 -119 0 -6 4 -11 8 -11 4 0 25 -22 45 -49 37 -48 47 -84 71 -262 7 -50
14 -90 21 -129 3 -14 7 -43 11 -65 3 -22 7 -51 10 -65 2 -14 7 -41 10 -60 3
-19 21 -129 41 -245 19 -115 37 -221 38 -235 2 -14 7 -41 11 -60 4 -19 8 -42
9 -50 6 -49 28 -159 38 -185 11 -31 62 -84 81 -86 6 0 22 -3 36 -5 43 -8 88 6
120 38 50 50 47 30 65 421 6 136 17 282 21 286 2 2 30 -25 61 -60 110 -124
419 -425 513 -500 127 -100 263 -183 343 -209 57 -18 146 -19 195 -2 66 22
146 114 159 182 1 8 6 35 11 60 19 101 2 305 -44 532 -3 15 -5 30 -5 33 0 2
-5 19 -10 37 -5 18 -11 44 -14 58 -10 53 -14 72 -20 90 -3 10 -8 27 -10 37 -2
10 -13 56 -25 103 -11 47 -23 97 -25 111 -8 53 -108 383 -134 444 -5 11 -26
61 -46 110 -21 50 -52 120 -71 158 -18 37 -30 67 -26 67 4 0 3 4 -3 8 -5 4
-25 36 -44 72 -19 36 -40 72 -48 81 -7 9 -11 18 -8 21 3 3 -1 11 -10 18 -8 7
-15 16 -15 21 0 7 -126 201 -152 234 -5 6 -22 28 -39 50 -16 22 -35 47 -42 55
-7 8 -26 33 -42 55 -17 22 -38 49 -47 59 -10 11 -18 23 -18 26 0 15 84 136
113 163 120 112 242 144 396 105 146 -38 338 -153 501 -302 116 -107 333 -334
391 -411 13 -16 26 -32 30 -35 7 -6 165 -205 194 -246 11 -16 28 -36 37 -46
10 -10 18 -21 18 -25 0 -7 8 -18 65 -85 11 -12 60 -70 108 -128 146 -173 171
-202 202 -236 17 -17 48 -53 70 -79 21 -25 48 -57 60 -69 358 -401 602 -652
826 -850 143 -127 150 -134 214 -181 22 -16 42 -32 45 -35 3 -4 23 -17 45 -30
22 -13 42 -27 45 -30 12 -16 183 -102 230 -116 131 -39 243 -7 308 89 26 37
33 55 49 117 7 26 6 164 -2 210 -4 25 -8 56 -10 70 -1 14 -5 32 -9 40 -3 8 -7
26 -10 40 -4 26 -24 103 -34 130 -2 8 -6 22 -7 30 -2 18 -202 613 -220 655 -7
17 -38 95 -70 175 -82 206 -291 628 -317 638 -4 2 -8 8 -8 13 0 6 -18 37 -40
70 -22 33 -40 65 -40 70 0 5 -4 9 -8 9 -5 0 -13 10 -19 23 -9 19 -181 254
-208 283 -5 7 -17 20 -25 30 -120 144 -326 353 -454 459 -27 22 -58 48 -70 58
-11 10 -30 26 -41 35 -41 35 -243 180 -325 233 -121 80 -200 129 -205 129 -2
0 -26 13 -53 29 -27 16 -76 44 -108 62 -70 39 -451 229 -459 229 -3 0 -24 9
-48 19 -95 44 -203 86 -442 171 -49 18 -108 41 -130 50 -22 10 -69 30 -105 45
-139 59 -360 172 -447 228 -24 15 -45 27 -48 27 -3 0 -11 4 -18 10 -7 5 -57
43 -112 83 -88 66 -215 184 -215 201 0 4 -9 17 -20 28 -26 28 -95 170 -109
223 -59 227 0 474 183 760 53 84 131 193 150 210 6 6 22 24 34 40 69 91 305
334 436 450 38 33 80 70 93 83 l25 23 16 -23 c9 -13 18 -25 21 -28 4 -3 19
-23 36 -45 16 -22 59 -69 95 -105 158 -157 312 -243 514 -285 58 -12 275 -13
326 -1 14 4 39 9 55 11 49 9 199 56 210 66 5 5 17 9 26 9 16 0 382 182 434
216 26 17 38 24 125 72 100 56 431 285 438 303 2 5 10 9 17 9 7 0 15 3 17 8 2
4 28 27 58 52 124 101 259 248 332 360 183 283 175 577 -22 804 -50 58 -78 86
-84 86 -4 0 -17 9 -29 21 -36 34 -177 97 -252 112 -215 45 -505 -18 -825 -178
-156 -78 -390 -214 -466 -272 -17 -13 -36 -23 -42 -23 -6 0 -12 -4 -14 -8 -1
-4 -39 -33 -83 -63 -103 -70 -149 -103 -155 -109 -3 -3 -39 -30 -80 -60 -41
-30 -107 -79 -146 -110 -39 -30 -86 -66 -104 -80 -18 -14 -38 -30 -44 -35 -6
-6 -45 -38 -86 -70 -41 -33 -77 -62 -80 -65 -39 -40 -123 -101 -129 -94 -4 5
-26 54 -48 109 -90 221 -87 210 -76 254 19 73 13 181 -13 260 -26 76 -55 128
-116 202 -20 25 -39 56 -42 70 -2 13 -16 76 -30 139 -13 63 -27 131 -31 150
-4 19 -10 53 -14 75 -15 76 -43 230 -46 255 -2 14 -6 36 -10 50 -3 14 -8 43
-9 65 -2 22 -6 51 -9 65 -6 25 -13 67 -23 145 -3 22 -8 51 -10 65 -3 14 -7 42
-9 63 -2 21 -7 55 -10 75 -3 21 -8 53 -11 72 -2 19 -6 51 -9 70 -12 92 -18
138 -20 170 -2 19 -6 51 -9 70 -3 19 -8 62 -12 95 -3 33 -7 71 -9 85 -2 14 -6
52 -9 85 -3 33 -8 76 -11 95 -2 19 -7 64 -10 100 -3 36 -8 81 -10 100 -2 19
-6 60 -9 90 -14 147 -19 199 -22 245 -1 28 -5 84 -8 125 -3 41 -8 104 -10 140
-11 150 -16 208 -22 260 -3 30 -7 78 -9 105 -4 63 -14 169 -21 216 -2 20 -7
65 -10 100 -10 131 -12 145 -17 189 -3 25 -9 70 -12 100 -8 72 -11 96 -19 150
-4 25 -8 61 -10 80 -7 64 -17 135 -22 160 -3 13 -8 40 -10 60 -9 63 -13 85
-14 85 -1 0 -3 15 -6 34 -2 19 -7 46 -10 60 -3 14 -7 36 -9 48 -2 11 -6 29 -9
40 -3 10 -8 34 -11 53 -3 19 -13 62 -21 95 -9 33 -17 67 -19 75 -13 65 -100
255 -134 294 -79 91 -221 93 -315 3 -42 -40 -126 -177 -109 -177 4 0 3 -4 -2
-8 -12 -8 -64 -165 -81 -244 -1 -5 -2 -9 -4 -10 -1 -2 -3 -10 -5 -18 -1 -8
-10 -42 -18 -75 -9 -33 -18 -73 -21 -90 -3 -16 -7 -41 -10 -55 -9 -40 -25
-122 -31 -155 -3 -16 -7 -41 -10 -55 -3 -14 -7 -38 -10 -55 -3 -16 -7 -41 -10
-55 -2 -14 -7 -45 -10 -70 -3 -25 -8 -52 -10 -60 -2 -8 -7 -35 -10 -60 -3 -25
-8 -52 -10 -60 -2 -8 -7 -42 -10 -75 -4 -32 -8 -62 -10 -65 -2 -3 -6 -30 -9
-60 -6 -55 -10 -85 -21 -160 -3 -22 -7 -59 -10 -82 -3 -24 -8 -59 -10 -78 -3
-19 -7 -57 -10 -85 -8 -80 -14 -135 -20 -179 -7 -49 -12 -94 -20 -161 -9 -89
-24 -218 -40 -345 -5 -42 -9 -81 -20 -190 -2 -25 -7 -70 -11 -100 -3 -30 -7
-71 -9 -90 -1 -19 -6 -73 -10 -120 -4 -47 -9 -101 -10 -120 -5 -83 -17 -239
-20 -290 -12 -147 -15 -195 -21 -320 -4 -74 -7 -172 -8 -217 -1 -46 -5 -83 -9
-83 -4 0 -3 -9 3 -20 6 -11 7 -20 3 -20 -8 0 -9 -6 -17 -613 -3 -213 -8 -391
-10 -396 -3 -4 -38 -27 -78 -51 -70 -41 -352 -225 -373 -243 -5 -4 -48 -35
-95 -68 -47 -33 -100 -72 -119 -87 -19 -15 -44 -34 -57 -42 -54 -36 -194 -146
-194 -152 0 -5 -7 -8 -15 -8 -8 0 -15 -4 -15 -10 0 -9 -59 -45 -65 -38 -3 4
-49 101 -50 108 -1 3 -9 23 -19 45 -48 109 -146 393 -146 425 0 10 -4 21 -9
24 -5 3 -11 18 -14 33 -2 16 -16 71 -30 123 -14 52 -28 106 -31 120 -3 14 -10
45 -16 70 -6 25 -13 59 -16 75 -3 17 -9 44 -14 60 -5 17 -11 46 -14 65 -8 51
-16 93 -21 110 -3 8 -7 32 -11 54 -3 21 -8 48 -10 60 -2 11 -7 37 -9 56 -3 19
-8 44 -10 56 -3 12 -7 39 -10 60 -4 21 -8 50 -11 64 -7 43 -13 83 -19 130 -3
25 -7 59 -10 75 -3 17 -7 44 -10 60 -3 17 -7 56 -10 85 -3 30 -7 66 -10 80 -3
14 -7 53 -11 88 -3 35 -7 72 -9 83 -2 11 -7 50 -10 87 -4 37 -9 81 -11 97 -7
58 -14 131 -19 190 -3 33 -7 83 -10 110 -10 99 -21 232 -29 360 -3 50 -8 117
-11 150 -2 33 -7 130 -10 215 -3 85 -8 205 -10 265 -9 197 -14 300 -15 300 0
0 -3 45 -5 100 -5 102 -8 152 -20 310 -4 50 -8 113 -10 140 -2 28 -4 50 -5 50
0 0 -3 29 -5 65 -3 36 -7 88 -10 115 -3 28 -8 73 -10 100 -3 28 -7 64 -9 80
-3 17 -7 53 -11 80 -16 129 -22 166 -40 270 -22 121 -24 133 -46 225 -12 47
-24 90 -27 95 -4 6 -8 19 -9 29 -7 42 -73 163 -110 200 -50 51 -89 66 -167 66
-55 0 -70 -4 -112 -32z m93 -498 c19 -59 40 -144 50 -205 2 -16 7 -37 10 -45
4 -8 6 -18 5 -22 -1 -4 3 -31 9 -60 5 -29 12 -69 15 -88 2 -19 6 -46 9 -60 6
-29 15 -92 19 -135 6 -54 17 -149 21 -175 6 -36 16 -128 20 -180 2 -25 6 -76
9 -115 4 -38 8 -92 11 -120 3 -27 7 -84 10 -125 2 -41 7 -109 10 -150 3 -41 8
-113 10 -160 3 -47 7 -123 10 -170 5 -86 10 -199 21 -430 10 -216 12 -262 18
-365 4 -55 8 -127 11 -160 3 -33 7 -94 10 -135 3 -41 7 -91 10 -110 3 -19 7
-66 10 -105 3 -38 7 -83 9 -100 2 -16 7 -66 10 -109 4 -43 9 -86 11 -95 1 -9
6 -43 10 -76 3 -33 11 -89 15 -125 5 -36 12 -85 15 -110 3 -25 10 -70 15 -100
5 -30 12 -73 15 -95 9 -60 14 -95 25 -150 5 -27 12 -66 15 -85 4 -19 10 -54
16 -78 5 -23 12 -59 15 -78 3 -20 7 -44 10 -53 2 -9 12 -54 23 -101 10 -47 27
-114 36 -150 9 -36 19 -72 21 -80 2 -8 13 -49 24 -90 12 -41 23 -79 24 -85 2
-5 6 -17 9 -25 3 -8 17 -51 31 -95 31 -101 56 -170 96 -265 17 -41 36 -88 42
-105 7 -16 35 -75 63 -130 l51 -99 -101 -80 c-55 -44 -102 -82 -105 -86 -3 -3
-18 -15 -33 -27 -119 -92 -425 -391 -524 -514 -275 -339 -402 -679 -359 -959
4 -25 9 -58 11 -74 2 -15 7 -35 9 -45 3 -9 8 -32 11 -51 10 -55 67 -220 76
-220 5 0 9 -7 9 -15 0 -9 5 -21 10 -28 6 -7 29 -41 53 -77 94 -144 323 -343
526 -456 19 -10 59 -33 90 -51 31 -18 63 -35 71 -39 8 -4 51 -24 95 -44 94
-44 156 -72 205 -90 19 -7 39 -17 45 -22 5 -4 14 -8 21 -8 6 0 28 -7 48 -15
20 -8 38 -15 41 -15 3 -1 25 -9 50 -20 25 -11 45 -17 45 -14 0 3 10 -2 22 -10
12 -9 29 -16 37 -16 7 0 32 -9 55 -19 23 -11 111 -50 196 -87 279 -120 741
-365 771 -407 3 -5 9 -8 13 -7 11 3 181 -114 182 -125 1 -5 5 -35 8 -65 14
-120 16 -137 22 -180 3 -25 7 -61 10 -80 2 -19 7 -53 10 -75 3 -22 7 -56 9
-75 4 -36 22 -172 31 -223 2 -16 7 -52 9 -80 3 -29 7 -61 9 -72 2 -11 7 -45
11 -75 4 -30 9 -64 11 -75 8 -44 16 -102 28 -204 l6 -45 -25 30 c-14 16 -47
58 -75 94 -27 36 -56 72 -63 80 -7 8 -51 60 -97 115 -170 202 -363 396 -520
525 -30 25 -57 47 -60 51 -8 9 -229 159 -235 159 -3 0 -22 10 -43 23 -20 13
-62 33 -92 46 -55 22 -80 33 -122 51 -28 11 -151 47 -193 56 -94 19 -249 8
-350 -24 -43 -13 -119 -53 -127 -66 -4 -6 -8 -7 -8 -3 0 8 -81 -55 -126 -98
-39 -38 -114 -132 -114 -144 0 -6 -4 -11 -10 -11 -5 0 -10 -5 -10 -12 0 -6 -6
-19 -14 -27 -20 -24 -126 -239 -126 -256 0 -2 -5 -16 -11 -32 -6 -15 -10 -29
-10 -30 0 -2 -14 -39 -30 -84 -29 -81 -92 -297 -103 -354 -3 -16 -13 -64 -21
-105 -17 -80 -21 -105 -30 -160 -13 -86 -16 -106 -17 -117 -1 -7 -5 -13 -9
-13 -4 0 -11 33 -15 73 -8 71 -10 85 -13 90 -1 1 -4 20 -6 42 -2 22 -6 51 -8
65 -2 14 -8 52 -12 85 -3 33 -9 71 -11 85 -6 36 -12 75 -24 165 -6 44 -13 94
-15 110 -3 17 -7 59 -11 95 -3 36 -8 72 -10 80 -3 8 -7 38 -10 65 -2 28 -6 66
-9 85 -3 19 -8 58 -11 85 -3 28 -7 61 -9 75 -3 14 -7 57 -11 95 -3 39 -8 79
-11 90 -2 11 -6 40 -8 65 -3 25 -8 65 -11 90 -3 25 -7 61 -9 80 -3 30 -9 85
-19 180 -2 14 -6 57 -10 95 -4 39 -9 81 -11 95 -3 14 -7 54 -10 90 -2 36 -6
81 -9 100 -3 19 -8 67 -12 105 -3 39 -8 86 -10 105 -2 19 -6 62 -9 95 -3 33
-7 83 -10 110 -2 28 -7 79 -10 115 -3 36 -7 88 -10 115 -3 28 -7 82 -10 120
-3 39 -7 88 -10 110 -2 22 -7 76 -9 120 -3 44 -6 80 -6 80 -2 0 -8 92 -14 195
-3 47 -8 106 -11 131 -3 26 -7 94 -10 150 -2 57 -5 104 -6 104 0 0 -2 32 -4
70 -2 39 -6 113 -9 165 -16 246 -30 556 -41 872 -2 70 -6 132 -10 137 -3 5 -1
12 5 16 6 4 8 11 4 16 -16 27 -24 1243 -11 1799 9 363 19 653 32 880 3 47 7
123 10 170 2 47 7 119 10 160 8 102 13 159 20 270 4 52 8 111 10 130 4 42 16
187 20 250 2 25 4 45 5 45 0 0 3 31 5 69 2 37 6 80 9 95 3 14 8 51 11 81 3 30
8 62 10 70 2 8 6 38 10 65 3 28 7 64 10 80 2 17 7 50 10 75 3 25 8 55 11 68 2
12 7 44 10 70 3 26 7 58 10 72 2 14 7 45 10 70 3 25 7 52 9 60 3 8 7 33 10 55
3 22 10 65 15 95 5 30 12 71 15 90 5 33 20 113 28 155 3 11 8 38 12 60 4 22 9
50 11 61 2 12 13 66 25 120 12 55 22 106 23 114 2 8 6 25 10 37 7 21 11 37 21
86 14 67 71 255 75 249 3 -4 11 -23 17 -42z m3003 -185 c0 0 2 -20 4 -45 2
-25 6 -54 9 -65 3 -11 8 -42 12 -70 3 -27 8 -62 10 -76 3 -14 7 -41 9 -60 41
-311 41 -304 61 -484 3 -22 7 -58 10 -80 2 -22 7 -65 10 -95 3 -30 7 -71 10
-90 2 -19 7 -55 10 -80 2 -25 7 -67 11 -95 3 -27 7 -63 8 -80 2 -16 7 -64 12
-105 4 -41 8 -90 9 -107 0 -18 2 -33 5 -33 3 0 6 -19 7 -43 1 -40 7 -98 19
-197 7 -65 14 -137 19 -200 2 -30 6 -71 9 -90 2 -19 7 -71 10 -115 4 -44 9
-100 12 -125 6 -44 9 -79 19 -185 2 -27 6 -66 9 -85 3 -19 7 -62 11 -95 3 -33
8 -73 10 -90 3 -16 7 -52 11 -80 10 -90 12 -109 18 -155 4 -25 9 -61 11 -80 3
-19 7 -51 10 -70 7 -48 13 -99 19 -140 4 -34 43 -281 52 -330 24 -140 34 -193
39 -220 3 -14 9 -50 14 -80 5 -30 12 -67 16 -82 7 -27 7 -27 -36 -22 -117 15
-254 6 -379 -26 -88 -22 -196 -56 -225 -70 -11 -5 -49 -21 -85 -36 -36 -14
-116 -51 -179 -80 -62 -30 -115 -54 -117 -54 -4 0 4 530 11 725 4 134 9 238
20 495 6 130 15 293 20 355 2 33 7 101 10 150 3 50 8 115 11 145 3 30 7 84 9
120 3 36 7 88 9 115 3 28 7 84 11 125 4 41 8 86 10 100 4 25 16 150 20 205 1
17 3 30 4 30 1 0 4 21 6 47 3 45 10 91 21 153 3 17 7 44 9 60 2 17 4 30 5 30
1 0 3 9 5 20 11 81 17 123 20 140 2 11 6 34 9 50 2 17 7 44 10 60 3 17 8 48
10 70 3 22 12 76 20 120 8 44 17 96 20 115 3 19 8 46 11 60 2 14 7 41 9 60 10
65 18 103 27 127 6 16 5 22 -1 18 -6 -4 -7 2 -1 18 5 13 12 41 15 63 5 31 14
80 21 114 1 3 5 25 9 50 5 25 10 54 13 65 14 65 35 174 38 195 2 14 4 25 5 25
2 0 2 4 15 60 3 17 7 35 9 40 1 6 9 37 16 70 16 68 17 72 20 83 1 4 10 -31 20
-78 10 -47 19 -85 20 -85z m3495 -4390 c78 -39 114 -90 124 -174 4 -33 4 -61
1 -61 -4 0 -7 -6 -8 -12 -2 -39 -45 -153 -63 -168 -3 -3 -9 -12 -13 -20 -15
-33 -33 -59 -86 -125 -92 -116 -204 -219 -420 -388 -26 -21 -153 -103 -205
-132 -27 -16 -52 -32 -55 -35 -3 -3 -23 -15 -45 -27 -22 -11 -56 -30 -75 -42
-19 -11 -51 -28 -70 -38 -19 -10 -64 -33 -100 -53 -200 -110 -494 -163 -684
-125 -44 9 -87 21 -93 27 -7 6 -13 8 -13 4 0 -6 -99 43 -110 54 -3 3 -24 18
-46 33 -54 37 -145 129 -191 194 l-22 31 31 24 c17 12 38 30 47 38 9 8 55 44
101 80 47 35 87 67 90 70 10 11 268 199 365 265 55 37 102 72 103 76 2 5 9 9
16 9 7 0 23 9 36 20 13 11 27 20 31 20 4 0 14 6 21 13 19 18 236 147 248 147
5 0 10 3 10 8 0 4 10 12 23 18 12 6 78 40 147 76 104 53 220 107 240 112 3 1
37 14 75 28 103 39 187 63 254 72 18 3 36 7 39 10 2 3 57 4 121 3 106 -2 121
-5 176 -32z m-3065 0 c25 -4 73 -20 107 -36 48 -23 63 -36 72 -60 6 -17 8 -35
5 -40 -3 -5 -1 -9 4 -9 5 0 9 -6 10 -12 0 -14 2 -21 33 -128 37 -134 36 -140
-40 -241 -47 -61 -195 -205 -241 -234 -20 -13 -43 -30 -51 -38 -8 -7 -25 -20
-39 -27 -13 -7 -29 -17 -34 -21 -30 -24 -116 -77 -116 -71 0 4 -4 2 -8 -4 -7
-10 -41 -32 -122 -77 -25 -13 -76 -42 -115 -64 -146 -84 -384 -202 -389 -194
-7 11 -16 299 -21 678 l-4 302 52 30 c107 60 125 69 257 123 269 112 474 151
640 123z m-1263 -598 c1 -146 11 -504 18 -674 l5 -121 -52 -12 c-93 -20 -102
-22 -190 -24 -108 -3 -236 26 -328 74 -36 19 -67 37 -70 40 -3 4 -16 13 -29
22 -29 21 -128 115 -160 154 -13 16 -30 37 -38 46 -13 15 -5 23 83 90 54 40
105 78 114 85 64 51 366 267 458 328 8 6 49 33 91 62 42 29 81 52 86 53 6 0
11 -48 12 -123z m1734 -415 c-14 -13 -50 -45 -80 -70 -311 -270 -537 -504
-690 -712 -34 -47 -68 -92 -74 -101 -20 -26 -37 -53 -49 -79 -7 -14 -15 -27
-18 -30 -3 -3 -25 -41 -48 -86 -64 -124 -124 -300 -134 -389 -1 -16 -7 -33
-13 -37 -6 -5 -6 -8 2 -8 8 0 9 -9 5 -27 -8 -32 -7 -117 2 -183 4 -25 7 -52 8
-60 1 -32 52 -178 83 -240 67 -132 205 -297 365 -435 49 -43 220 -167 220
-160 0 3 9 -2 19 -12 11 -10 42 -29 68 -43 26 -13 50 -27 53 -31 5 -6 281
-140 325 -159 11 -4 48 -20 81 -34 34 -14 65 -26 69 -26 4 0 21 -6 38 -14 18
-7 57 -23 87 -34 237 -88 336 -126 395 -151 145 -62 156 -68 330 -152 88 -42
205 -105 260 -138 55 -34 109 -67 120 -74 48 -29 110 -71 115 -77 3 -4 10 -9
16 -11 6 -2 24 -14 40 -26 16 -13 58 -44 94 -70 36 -27 74 -55 83 -63 21 -18
31 -26 77 -64 222 -181 488 -463 668 -709 90 -123 272 -398 272 -412 0 -3 13
-25 28 -48 15 -23 48 -82 72 -132 25 -49 48 -92 51 -95 5 -4 49 -94 54 -110 1
-3 22 -49 48 -103 26 -54 47 -100 47 -103 0 -2 8 -23 19 -47 10 -23 28 -67 40
-97 12 -30 26 -64 31 -75 26 -62 53 -139 53 -151 0 -8 4 -14 9 -14 4 0 7 -3 6
-8 -1 -4 12 -50 29 -102 36 -112 61 -195 68 -230 21 -99 26 -130 30 -170 2
-25 4 -49 5 -55 1 -5 2 -18 1 -28 -1 -15 -5 -16 -21 -7 -11 6 -20 8 -20 5 0
-5 -68 37 -100 62 -193 151 -273 224 -545 498 -212 213 -376 385 -472 494 -21
25 -51 59 -68 76 -16 17 -59 64 -95 105 -36 41 -76 87 -90 101 -14 15 -34 37
-44 50 -11 13 -54 63 -95 110 -115 129 -120 136 -205 254 -78 107 -262 349
-288 377 -7 7 -31 36 -54 63 -23 28 -52 63 -65 78 -52 62 -298 307 -359 358
-36 30 -67 57 -68 62 -2 4 -8 5 -13 1 -5 -3 -9 -1 -9 4 0 5 -37 33 -82 63
-281 185 -515 235 -734 156 -141 -51 -279 -164 -374 -307 -8 -12 -23 -33 -33
-46 l-17 -23 -54 52 c-109 106 -251 227 -381 323 -44 32 -82 61 -85 64 -3 3
-25 19 -50 35 -113 75 -118 82 -125 150 -3 33 -8 80 -11 105 -3 25 -7 61 -9
80 -11 102 -17 159 -20 195 -2 22 -7 63 -10 90 -4 28 -8 75 -10 105 -2 30 -5
55 -6 55 -1 0 -2 16 -4 35 -1 19 -5 67 -9 105 -4 39 -9 93 -12 120 -2 28 -7
73 -9 100 -3 28 -7 79 -10 115 -3 36 -7 88 -10 115 -3 28 -7 79 -10 115 -2 36
-6 90 -9 120 -2 30 -7 93 -11 140 -3 47 -8 108 -10 135 -3 28 -8 93 -11 145
-3 52 -7 124 -9 160 -2 36 -7 103 -10 150 -2 47 -7 121 -10 165 -3 44 -7 127
-10 185 -3 58 -6 126 -8 153 -4 55 3 63 83 97 125 52 334 153 398 192 17 11
32 16 32 13 0 -4 7 -1 16 6 17 14 47 33 74 46 64 30 368 229 390 254 3 3 30
25 60 48 83 65 137 111 199 169 l56 53 51 -108 52 -108 -27 -23z m-2791 -318
c32 -41 147 -155 197 -195 117 -94 337 -198 419 -199 11 0 24 -3 27 -7 9 -8
48 -11 177 -12 105 -1 122 0 213 19 26 6 52 10 56 10 4 0 9 -26 10 -57 1 -32
4 -87 7 -123 2 -36 6 -108 9 -160 3 -52 7 -126 10 -165 3 -38 8 -97 10 -130 5
-76 14 -201 21 -285 2 -36 7 -90 9 -120 8 -115 22 -284 30 -360 3 -31 8 -80
11 -110 5 -62 11 -126 19 -215 3 -33 8 -82 10 -110 7 -73 12 -123 20 -185 4
-30 8 -80 11 -110 2 -30 6 -73 9 -95 3 -22 7 -62 10 -90 3 -27 8 -79 11 -114
l7 -63 -54 29 c-30 17 -72 40 -94 53 -50 28 -292 150 -302 152 -5 1 -28 11
-53 24 -59 29 -179 84 -185 84 -2 0 -28 11 -57 24 -29 13 -123 52 -208 86 -85
34 -175 71 -200 82 -25 11 -69 31 -98 44 -29 13 -57 24 -62 24 -6 0 -10 5 -10
10 0 6 -3 9 -7 8 -8 -2 -184 81 -193 91 -3 3 -27 17 -55 31 -27 13 -68 36 -90
50 -22 14 -52 32 -67 39 -16 8 -28 18 -28 23 0 4 -7 8 -15 8 -8 0 -15 5 -15
10 0 6 -5 10 -11 10 -10 0 -103 63 -119 80 -3 3 -27 23 -55 44 -49 39 -171
160 -208 205 -29 36 -81 121 -108 176 -20 42 -24 64 -23 140 0 86 8 157 18
173 3 5 7 20 10 35 13 73 186 402 218 415 4 2 8 8 8 13 0 11 83 120 155 204
28 33 60 71 71 84 16 22 423 428 464 464 20 18 29 13 70 -39z m1748 -3591 c68
-56 142 -125 275 -254 l120 -117 -47 -138 c-26 -77 -49 -147 -52 -156 -2 -10
-6 -26 -8 -36 -2 -9 -9 -37 -16 -62 -7 -25 -14 -56 -17 -70 -2 -14 -9 -43 -15
-65 -6 -22 -12 -50 -14 -63 -1 -12 -8 -46 -14 -75 -6 -30 -12 -64 -15 -78 -7
-45 -16 -104 -20 -132 -2 -15 -7 -47 -11 -70 -3 -23 -7 -52 -9 -65 -3 -26 -15
-42 -16 -21 0 8 -2 23 -4 34 -2 11 -9 56 -15 100 -15 105 -18 125 -24 155 -2
14 -10 66 -16 115 -7 50 -14 99 -16 110 -2 11 -6 40 -9 65 -3 25 -8 54 -10 66
-2 11 -7 45 -10 75 -9 81 -15 121 -19 128 -2 3 -7 38 -10 76 -4 39 -9 79 -11
90 -2 11 -7 43 -10 70 -7 61 -14 110 -20 150 -3 17 -7 55 -10 85 -3 30 -8 70
-11 88 -3 17 -2 32 1 32 4 0 27 -17 53 -37z m753 -821 c24 -35 49 -71 54 -81
6 -9 24 -39 41 -66 59 -92 149 -259 203 -375 49 -105 148 -353 156 -390 2 -8
11 -35 19 -59 15 -40 61 -202 72 -251 9 -42 13 -57 29 -119 9 -35 14 -66 11
-68 -3 -3 -1 -13 3 -22 5 -9 11 -34 15 -56 3 -22 8 -51 11 -65 14 -63 24 -245
17 -286 -3 -19 -32 -30 -32 -12 0 4 -7 8 -15 8 -8 0 -15 4 -15 9 0 5 -8 12
-17 15 -10 4 -32 19 -50 34 -17 15 -51 43 -74 62 -83 67 -375 365 -539 550
-36 40 -76 86 -90 101 -102 113 -108 122 -105 154 2 20 12 103 22 185 3 25 7
54 9 65 2 11 7 43 9 70 5 43 26 173 39 241 2 12 7 37 10 55 3 19 8 45 11 59 3
14 8 39 10 55 3 17 8 37 10 45 2 8 7 29 10 45 3 17 7 35 9 40 1 6 6 28 11 50
4 22 10 45 14 50 3 6 7 20 9 33 1 12 7 34 13 49 l9 25 34 -43 c18 -24 53 -72
77 -107z"/>
</g>
</svg>
